Coordinates
version=1
nRows=6
nColumns=36
inDegrees=yes

Units are S.I. units (second, meters, Newtons, ...)
If the header above contains a line with 'inDegrees', this indicates whether rotational values are in degrees (yes) or radians (no).

endheader
time	pelvis_tilt	pelvis_list	pelvis_rotation	pelvis_tx	pelvis_ty	pelvis_tz	hip_flexion_r	hip_adduction_r	hip_rotation_r	knee_angle_r	knee_angle_r_beta	ankle_angle_r	subtalar_angle_r	mtp_angle_r	hip_flexion_l	hip_adduction_l	hip_rotation_l	knee_angle_l	knee_angle_l_beta	ankle_angle_l	subtalar_angle_l	mtp_angle_l	lumbar_extension	lumbar_bending	lumbar_rotation	arm_flex_r	arm_add_r	arm_rot_r	elbow_flex_r	pro_sup_r	arm_flex_l	arm_add_l	arm_rot_l	elbow_flex_l	pro_sup_l
      0.34000000	      3.49082239	     -2.03969365	      1.51709913	      0.28899885	      0.96543818	     -0.22793584	      0.95753336	      5.52984383	     -9.62508990	      7.43176221	      0.12970872	      3.84295134	    -14.41702360	     -6.54289044	     20.90729075	     -4.70842823	     -1.62424673	     55.57539208	      0.96997357	     -1.30318652	    -17.46399625	     -6.54289044	     -8.99673562	      3.71921720	      3.53122478	      0.94343670	     -8.94346264	    -21.16820401	     40.15600955	    112.49749645	     -5.89709857	     -4.42797546	    -14.86294603	     19.82037367	    106.99988010
      0.35000000	      3.42809075	     -1.95654057	      1.16597732	      0.29979343	      0.96601948	     -0.22684902	     -0.01947547	      5.54299813	     -9.35451342	      6.86646346	      0.11984240	      4.26901199	    -14.00201962	     -6.55296884	     21.61220993	     -4.67179161	     -2.27913051	     52.87432436	      0.92283105	     -1.13284737	    -17.44799656	     -6.55296884	     -9.04614221	      3.62277754	      3.94459210	      1.73782561	     -9.19248323	    -20.91291859	     40.87694523	    112.50649705	     -6.60859050	     -4.53022744	    -15.07578987	     19.27494815	    106.85836509
      0.36000000	      3.51595612	     -1.88880016	      0.81907179	      0.31068324	      0.96660775	     -0.22583578	     -1.18409388	      5.55592634	     -9.06665104	      6.29528732	      0.10987349	      4.85653115	    -13.42382896	     -6.56844429	     21.98407377	     -4.66357452	     -2.98115146	     49.86720743	      0.87034696	     -1.37878354	    -17.68483861	     -6.56844429	     -9.23667306	      3.52278611	      4.42492673	      2.49005946	     -9.51789155	    -20.47938030	     41.60658823	    112.48908749	     -7.23591533	     -4.60812022	    -15.34188164	     18.74323020	    106.66129385
      0.37000000	      3.36951249	     -1.82016888	      0.46719356	      0.32152129	      0.96663246	     -0.22490719	     -2.02265860	      5.54032076	     -8.80700104	      5.82261178	      0.10162375	      5.25014932	    -12.96563531	     -6.57895324	     22.54118622	     -4.64679741	     -3.72583953	     46.71590757	      0.81534640	     -1.74054873	    -17.85374213	     -6.57895324	     -9.17375827	      3.46619756	      4.78165936	      3.26558219	     -9.78719262	    -20.14115824	     42.33011312	    112.48536148	     -7.98665962	     -4.70495538	    -15.54039109	     18.29002481	    106.51490428
      0.38000000	      3.43563659	     -1.77789339	      0.10857136	      0.33241871	      0.96678582	     -0.22399324	     -3.13319593	      5.54854585	     -8.58130408	      5.29841964	      0.09247487	      5.88610342	    -12.38305570	     -6.59495356	     22.68679863	     -4.66486078	     -4.55119645	     43.23701500	      0.75462827	     -2.59344619	    -18.32158936	     -6.59495356	     -9.37136748	      3.39774945	      5.24217245	      4.00709243	    -10.13011462	    -19.58161268	     43.00316131	    112.45343716	     -8.60515515	     -4.72998521	    -15.79145864	     17.89996227	    106.31599229
      0.39000000	      3.38694532	     -1.76501602	     -0.24157469	      0.34342143	      0.96655047	     -0.22316974	     -4.08413619	      5.56553519	     -8.40880305	      4.84365071	      0.08453765	      6.47365095	    -11.81361508	     -6.61146804	     22.86032522	     -4.70278594	     -5.40448478	     39.63448003	      0.69175217	     -3.48439304	    -18.63097353	     -6.61146804	     -9.40214055	      3.37950186	      5.63081695	      4.73312021	    -10.44818407	    -19.02951046	     43.62594761	    112.41141556	     -9.31541297	     -4.75146783	    -16.04421515	     17.58149759	    106.11913320
